<?xml version="1.0" encoding="UTF-8"?><svg xmlns="http://www.w3.org/2000/svg" viewBox="0 0 419.25 30.42"><g id="a"/><g id="b"><g id="c"><g><g><rect x="11.27" y="23.08" width="2.17" height="7.33"/><rect x="15.03" y="23.08" width="2.17" height="7.33"/><rect x="18.79" y="23.17" width="2.17" height="7.25"/><rect y="25.23" width="2.17" height="5.19"/><rect x="3.76" y="25.23" width="2.17" height="5.19"/><rect x="7.52" y="25.29" width="2.17" height="5.13"/><rect x="22.55" y="20.94" width="2.17" height="9.48"/><rect x="26.3" y="17.88" width="2.17" height="12.54"/><rect x="30.06" y="16.25" width="2.17" height="14.17"/><rect x="33.82" y="11.29" width="2.17" height="19.12"/><rect x="37.58" y="6.92" width="2.17" height="23.5"/><rect x="41.34" y="13.7" width="2.17" height="16.72"/><rect x="45.09" y="2.33" width="2.17" height="28.08"/><rect x="48.85" width="2.17" height="30.42"/><rect x="52.61" y="5.17" width="2.17" height="25.25"/><rect x="56.37" y="9.33" width="2.17" height="21.08"/><rect x="60.13" y="12.35" width="2.17" height="18.06"/><rect x="63.88" y="7.85" width="2.17" height="22.56"/><rect x="67.64" y="9.6" width="2.17" height="20.81"/><rect x="108.98" y="7.98" width="2.17" height="22.44"/><rect x="112.74" y="3.6" width="2.17" height="26.81"/><rect x="116.49" y="9.36" width="2.17" height="21.05"/><rect x="120.25" y="2.33" width="2.17" height="28.08"/><rect x="124.01" width="2.17" height="30.42"/><rect x="127.77" y="5.17" width="2.17" height="25.25"/><rect x="131.52" y="9.33" width="2.17" height="21.08"/><rect x="135.28" y="12.35" width="2.17" height="18.06"/><rect x="139.04" y="7.85" width="2.17" height="22.56"/><rect x="142.8" y="12.66" width="2.17" height="17.75"/><rect x="146.56" y="9.36" width="2.17" height="21.05"/><rect x="150.31" y="2.33" width="2.17" height="28.08"/><rect x="154.07" width="2.17" height="30.42"/><rect x="157.83" y="5.17" width="2.17" height="25.25"/><rect x="161.59" y="9.36" width="2.17" height="21.05"/><rect x="165.35" y="2.33" width="2.17" height="28.08"/><rect x="169.1" width="2.17" height="30.42"/><rect x="172.86" y="5.17" width="2.17" height="25.25"/><rect x="176.62" y="9.33" width="2.17" height="21.08"/><rect x="180.38" y="12.35" width="2.17" height="18.06"/><rect x="184.13" y="7.85" width="2.17" height="22.56"/><rect x="187.89" y="9.6" width="2.17" height="20.81"/><rect x="71.4" y="15.14" width="2.17" height="15.27"/><rect x="75.16" y="11.65" width="2.17" height="18.77"/><rect x="78.91" y="17.06" width="2.17" height="13.35"/><rect x="82.67" y="7.99" width="2.17" height="22.43"/><rect x="86.43" y="6.12" width="2.17" height="24.29"/><rect x="90.19" y="10.25" width="2.17" height="20.17"/><rect x="93.95" y="13.58" width="2.17" height="16.84"/><rect x="97.7" y="15.99" width="2.17" height="14.43"/><rect x="101.46" y="12.4" width="2.17" height="18.02"/><rect x="105.22" y="13.8" width="2.17" height="16.62"/><rect x="191.65" y="11.29" width="2.17" height="19.12"/><rect x="195.41" y="6.92" width="2.17" height="23.5"/><rect x="199.17" y="13.7" width="2.17" height="16.72"/><rect x="202.92" y="2.33" width="2.17" height="28.08"/><rect x="206.68" width="2.17" height="30.42"/><rect x="210.44" y="5.17" width="2.17" height="25.25"/><rect x="214.2" y="9.33" width="2.17" height="21.08"/><rect x="217.96" y="12.35" width="2.17" height="18.06"/><rect x="221.71" y="7.85" width="2.17" height="22.56"/><rect x="225.47" y="9.6" width="2.17" height="20.81"/><rect x="304.34" y="9.36" width="2.17" height="21.05"/><rect x="308.1" y="2.33" width="2.17" height="28.08"/><rect x="311.86" width="2.17" height="30.42"/><rect x="315.62" y="5.17" width="2.17" height="25.25"/><rect x="319.37" y="9.33" width="2.17" height="21.08"/><rect x="323.13" y="12.35" width="2.17" height="18.06"/><rect x="326.89" y="7.85" width="2.17" height="22.56"/><rect x="330.65" y="9.6" width="2.17" height="20.81"/><rect x="334.41" y="11.29" width="2.17" height="19.12"/><g><rect x="266.81" y="15.18" width="2.17" height="15.24"/><rect x="270.56" y="6.92" width="2.17" height="23.5"/><rect x="274.32" y="12.32" width="2.17" height="18.09"/><rect x="278.08" y="2.33" width="2.17" height="28.08"/><rect x="281.84" width="2.17" height="30.42"/><rect x="285.6" y="5.17" width="2.17" height="25.25"/><rect x="289.35" y="9.33" width="2.17" height="21.08"/><rect x="293.11" y="12.35" width="2.17" height="18.06"/><rect x="296.87" y="7.85" width="2.17" height="22.56"/><rect x="300.63" y="9.6" width="2.17" height="20.81"/></g><g><rect x="229.23" y="16.61" width="2.17" height="13.8"/><rect x="232.99" y="21.73" width="2.17" height="8.69"/><rect x="236.74" y="23.57" width="2.17" height="6.22"/><rect x="240.5" y="22.37" width="2.17" height="8.05"/><rect x="244.26" y="23.99" width="2.17" height="6.12"/><rect x="248.02" y="23.77" width="2.17" height="6.65"/><rect x="251.78" y="23.68" width="2.17" height="6.73"/><rect x="255.53" y="22.93" width="2.17" height="7.48"/><rect x="259.29" y="21.76" width="2.17" height="8.65"/><rect x="263.05" y="18.59" width="2.17" height="11.83"/></g></g><g><g><rect x="405.81" y="23.08" width="2.17" height="7.33"/><rect x="402.05" y="23.08" width="2.17" height="7.33"/><rect x="398.29" y="23.17" width="2.17" height="7.25"/><rect x="413.32" y="25.23" width="2.17" height="5.19"/><rect x="409.56" y="25.29" width="2.17" height="5.13"/><rect x="417.08" y="25.23" width="2.17" height="5.19"/><rect x="394.53" y="20.94" width="2.17" height="9.48"/><polyline points="390.77 30.42 390.77 17.88 392.95 17.88 392.95 30.42"/><polyline points="387.02 30.42 387.02 16.25 389.19 16.25 389.19 30.42"/><rect x="383.26" y="11.29" width="2.17" height="19.12"/></g><g><rect x="338.16" y="6.92" width="2.17" height="23.5"/><rect x="341.92" y="13.7" width="2.17" height="16.72"/><rect x="345.68" y="2.33" width="2.17" height="28.08"/><rect x="349.44" width="2.17" height="30.42"/><rect x="353.2" y="5.17" width="2.17" height="25.25"/><rect x="371.98" y="2.33" width="2.17" height="28.08"/><rect x="375.74" width="2.17" height="30.42"/><rect x="379.5" y="5.17" width="2.17" height="25.25"/><rect x="356.95" y="9.33" width="2.17" height="21.08"/><rect x="360.71" y="12.35" width="2.17" height="18.06"/><rect x="364.47" y="7.85" width="2.17" height="22.56"/><rect x="368.23" y="9.6" width="2.17" height="20.81"/></g></g></g></g></g></svg>